<?xml version="1.0" encoding="UTF-8"?>
<svg width="24px" height="24px" viewBox="0 0 24 24" version="1.1" xmlns="http://www.w3.org/2000/svg" xmlns:xlink="http://www.w3.org/1999/xlink">
    <title>icon-nav-设置-24</title>
    <defs>
        <path d="M6.06489876,11.0018233 C6.06489876,13.1715134 7.8237801,14.9303947 9.99347019,14.9303947 C12.1631603,14.9303947 13.9220416,13.1715134 13.9220416,11.0018233 C13.9220416,8.83213322 12.1631603,7.07325188 9.99347019,7.07325188 C7.8237801,7.07325188 6.06489876,8.83213322 6.06489876,11.0018233 Z" id="path-1"></path>
        <filter x="-25.5%" y="-25.5%" width="150.9%" height="150.9%" filterUnits="objectBoundingBox" id="filter-2">
            <feGaussianBlur stdDeviation="1.5" in="SourceAlpha" result="shadowBlurInner1"></feGaussianBlur>
            <feOffset dx="0" dy="1" in="shadowBlurInner1" result="shadowOffsetInner1"></feOffset>
            <feComposite in="shadowOffsetInner1" in2="SourceAlpha" operator="arithmetic" k2="-1" k3="1" result="shadowInnerInner1"></feComposite>
            <feColorMatrix values="0 0 0 0 0.294117647   0 0 0 0 0.588235294   0 0 0 0 0.97254902  0 0 0 1 0" type="matrix" in="shadowInnerInner1"></feColorMatrix>
        </filter>
    </defs>
    <g id="页面-1" stroke="none" stroke-width="1" fill="none" fill-rule="evenodd">
        <g id="主页-大布局-角色" transform="translate(-309.000000, -61.000000)">
            <g id="nav-bar-登录" transform="translate(0.000000, 36.000000)">
                <g id="编组-305" transform="translate(17.000000, 22.000000)">
                    <g id="编组-304" transform="translate(226.000000, 1.000000)">
                        <g id="编组-300" transform="translate(0.000000, 2.000000)">
                            <g id="icon-nav-设置-24" transform="translate(66.000000, 0.000000)">
                                <rect id="矩形" x="0" y="0" width="24" height="24"></rect>
                                <g id="icon-nav-设置-20*22" transform="translate(2.019427, 1.000000)" fill-rule="nonzero">
                                    <path d="M4.49347019,11.0018233 C4.49347019,14.0393894 6.95590406,16.5018233 9.99347019,16.5018233 C13.0310363,16.5018233 15.4934702,14.0393894 15.4934702,11.0018233 C15.4934702,7.96425718 13.0310363,5.50182331 9.99347019,5.50182331 C6.95590406,5.50182331 4.49347019,7.96425718 4.49347019,11.0018233 Z" id="路径" fill="#FFFFFF"></path>
                                    <path d="M17.7814143,11.1622742 C17.8045095,10.1169125 18.2639824,9.48969556 18.8121895,9.11166363 C19.9086036,8.35681529 20.2975754,6.92126637 19.6618497,5.75192 C19.6314612,5.6960053 19.6010728,5.64130615 19.5694689,5.58660699 C18.928881,4.45737334 17.5395225,3.98939168 16.3361411,4.47560639 C15.9799888,4.62025526 15.5849393,4.68710979 15.1704413,4.65915244 C13.922085,4.57406487 12.8900943,3.59312669 12.7454454,2.34963258 L12.7417988,2.31195094 C12.6105209,1.04171501 11.5821767,0.0401127134 10.3058631,0.00486214708 C10.2025425,0.00243107354 10.0992219,0 9.99590126,0 C9.88528741,0 9.7758891,0.00121553677 9.66649079,0.00486214708 C8.39139272,0.0425437869 7.36183308,1.04049948 7.23177064,2.30951986 C7.23055511,2.32289077 7.22933957,2.33747721 7.2269085,2.35084811 C7.08104408,3.59069562 6.05269998,4.56920272 4.80677479,4.65672137 C4.40321658,4.68467871 4.01789142,4.62268634 3.66903237,4.48654622 C2.44620238,4.01127134 1.04468848,4.47195978 0.401669533,5.61577988 C0.371281114,5.6692635 0.342108232,5.72274711 0.312935349,5.77623073 C-0.325221455,6.95773247 0.044301723,8.40543676 1.13342267,9.19188905 C1.66947438,9.57964528 2.11314531,10.1922758 2.11314531,11.1610586 C2.11314531,12.0435383 1.64151704,12.6464446 1.08723227,13.0500028 C0.0807678261,13.7817559 -0.279031058,15.1297862 0.312935349,16.2237693 L0.393160776,16.3696337 C1.01186899,17.4745566 2.37691678,17.9717111 3.52924564,17.4465993 C3.90606204,17.2752086 4.33028437,17.190121 4.77760191,17.2168628 C6.05513105,17.2934416 7.11021697,18.3084148 7.23177064,19.5835129 L7.23541725,19.6260567 C7.33873788,20.9218189 8.37923735,21.9574562 9.67864616,21.9951379 C9.78318232,21.9975689 9.88893402,22 9.99468572,22 C10.0943597,22 10.1928182,21.9987845 10.2912767,21.9963534 C11.5931166,21.9611028 12.631185,20.9230344 12.7357211,19.6248412 L12.7393677,19.5871595 C12.8597059,18.3096304 13.9172229,17.2934416 15.1971831,17.2180783 C15.6457162,17.1913365 16.071154,17.2776396 16.4479704,17.4514614 C17.5686953,17.9656335 18.8887683,17.5888171 19.508692,16.5227913 C19.5415115,16.4668766 19.574331,16.4097464 19.605935,16.3526162 C20.2088412,15.2707884 19.904957,13.8850765 18.8681041,13.2092381 C18.2846465,12.8287751 17.7583191,12.199127 17.7814143,11.1622742 L17.7814143,11.1622742 Z" id="路径" fill-opacity="0.407824109" fill="#C0E0FF"></path>
                                    <g id="路径">
                                        <use fill="#FFFFFF" xlink:href="#path-1"></use>
                                        <use fill="black" fill-opacity="1" filter="url(#filter-2)" xlink:href="#path-1"></use>
                                    </g>
                                </g>
                            </g>
                        </g>
                    </g>
                </g>
            </g>
        </g>
    </g>
</svg>