<?xml version="1.0" encoding="UTF-8"?>
<svg width="24px" height="24px" viewBox="0 0 24 24" version="1.1" xmlns="http://www.w3.org/2000/svg" xmlns:xlink="http://www.w3.org/1999/xlink">
    <title>icon-nav-文件-24</title>
    <defs>
        <path d="M15.3657755,14.0629608 L5.54080913,14.0629608 C4.87657883,14.0629608 4.33929602,13.5243957 4.33929602,12.8614477 C4.33929602,12.1972174 4.87786113,11.6599346 5.54080913,11.6599346 L15.3657755,11.6599346 C16.0300058,11.6599346 16.5672886,12.1984997 16.5672886,12.8614477 C16.5672886,13.5243957 16.0287235,14.0629608 15.3657755,14.0629608 Z" id="path-1"></path>
        <filter x="-16.4%" y="-83.2%" width="132.7%" height="266.5%" filterUnits="objectBoundingBox" id="filter-2">
            <feGaussianBlur stdDeviation="1.5" in="SourceAlpha" result="shadowBlurInner1"></feGaussianBlur>
            <feOffset dx="0" dy="1" in="shadowBlurInner1" result="shadowOffsetInner1"></feOffset>
            <feComposite in="shadowOffsetInner1" in2="SourceAlpha" operator="arithmetic" k2="-1" k3="1" result="shadowInnerInner1"></feComposite>
            <feColorMatrix values="0 0 0 0 0.294117647   0 0 0 0 0.588235294   0 0 0 0 0.97254902  0 0 0 1 0" type="matrix" in="shadowInnerInner1"></feColorMatrix>
        </filter>
    </defs>
    <g id="页面-1" stroke="none" stroke-width="1" fill="none" fill-rule="evenodd">
        <g id="主页-大布局-角色" transform="translate(-243.000000, -61.000000)">
            <g id="nav-bar-登录" transform="translate(0.000000, 36.000000)">
                <g id="编组-305" transform="translate(17.000000, 22.000000)">
                    <g id="编组-304" transform="translate(226.000000, 1.000000)">
                        <g id="icon-nav-文件-24" transform="translate(0.000000, 2.000000)">
                            <rect id="矩形" x="0" y="0" width="24" height="24"></rect>
                            <g id="icon-nav-文件-21*20" transform="translate(1.000000, 2.000000)" fill-rule="nonzero">
                                <path d="M11.6894275,3.09674937 C9.1235494,1.66057575 9.53260242,0 7.82329935,0 L4.83939219,0 C2.16708341,0 0.00128229788,2.16580112 0.00128229788,4.83810989 L0.00128229788,10.7571969 L11.6894275,10.7571969 L11.6894275,3.09674937 Z" id="路径" fill="#FFFFFF"></path>
                                <path d="M15.962044,20 L5.05866513,20 C2.26453805,20 0,17.7354619 0,14.9413349 L0,8.1554145 C0,5.36128743 2.26453805,3.09674937 5.05866513,3.09674937 L15.9607617,3.09674937 C18.7548888,3.09674937 21.0194268,5.36128743 21.0194268,8.1554145 L21.0194268,14.9413349 C21.0194268,17.7341796 18.7548888,20 15.962044,20 Z" id="路径" fill-opacity="0.407824109" fill="#C0E0FF"></path>
                                <g id="路径">
                                    <use fill="#FFFFFF" xlink:href="#path-1"></use>
                                    <use fill="black" fill-opacity="1" filter="url(#filter-2)" xlink:href="#path-1"></use>
                                </g>
                            </g>
                        </g>
                    </g>
                </g>
            </g>
        </g>
    </g>
</svg>